<?xml version="1.0" encoding="UTF-8"?><svg id="Layer_2" xmlns="http://www.w3.org/2000/svg" xmlns:xlink="http://www.w3.org/1999/xlink" viewBox="0 0 57.53 55"><defs><style>.cls-1{fill:none;}.cls-2{clip-path:url(#clippath);}.cls-3{fill:#000082;}.cls-4{fill:#c9f8ea;}.cls-5{clip-path:url(#clippath-1);}</style><clipPath id="clippath"><rect class="cls-1" width="57.53" height="55"/></clipPath><clipPath id="clippath-1"><rect class="cls-1" width="57.53" height="55"/></clipPath></defs><g id="Layer_2-2"><g id="bbb_rating"><g class="cls-2"><g class="cls-5"><path class="cls-4" d="M34.44,31.04l6.33-4.62c.23-.17,.11-.54-.17-.54h-7.82c-.6,0-1.13-.39-1.32-.95l-2.41-7.43c-.09-.27-.48-.27-.57,0l-2.41,7.43c-.18,.57-.72,.95-1.31,.95h-7.82c-.29,0-.41,.37-.18,.54l6.33,4.62c.48,.35,.68,.97,.5,1.54l-2.42,7.46c-.09,.27,.23,.5,.46,.33l6.5-4.72c.19-.14,.41-.21,.64-.21,.22,0,.45,.07,.64,.21l6.5,4.72c.23,.17,.55-.06,.46-.33l-2.42-7.46c-.18-.57,.02-1.19,.5-1.54"/><path class="cls-3" d="M57.44,20.83h0c-.24-.75-.94-1.26-1.73-1.26h-19.26L30.5,1.26C30.25,.51,29.56,0,28.77,0s-1.49,.51-1.73,1.26l-5.95,18.32H1.82c-.79,0-1.49,.5-1.73,1.26-.24,.75,.02,1.57,.66,2.03l16.65,12.15c.39,.29,.87,.4,1.35,.33,.48-.08,.9-.33,1.19-.73,.29-.39,.4-.87,.33-1.35-.07-.48-.33-.9-.72-1.19L7.4,23.22h15.01c.79,0,1.49-.51,1.73-1.26l4.63-14.25,4.63,14.25c.24,.75,.94,1.26,1.73,1.26h15.01l-12.15,8.86c-.64,.46-.9,1.28-.66,2.03l4.64,14.31-12.13-8.81c-.64-.46-1.5-.46-2.14,0l-12.12,8.81,2.57-7.91c.15-.46,.11-.96-.11-1.39-.22-.43-.6-.75-1.06-.9-.19-.06-.38-.09-.56-.09-.28,0-.57,.07-.82,.2-.43,.22-.75,.6-.9,1.06l-4.3,13.24c-.24,.75,.02,1.57,.66,2.03,.64,.47,1.5,.47,2.14,0l15.58-11.32,15.58,11.32c.63,.45,1.51,.45,2.14,0,.64-.47,.9-1.28,.66-2.03l-5.96-18.38,.1-.07,15.49-11.31c.64-.47,.9-1.28,.66-2.03"/></g></g></g></g></svg>