<?xml version="1.0" encoding="UTF-8"?><svg id="Layer_2" xmlns="http://www.w3.org/2000/svg" xmlns:xlink="http://www.w3.org/1999/xlink" viewBox="0 0 61.5 55"><defs><style>.cls-1{fill:none;}.cls-2{clip-path:url(#clippath);}.cls-3{fill:#000082;}.cls-4{fill:#c9f8ea;}.cls-5{clip-path:url(#clippath-1);}</style><clipPath id="clippath"><rect class="cls-1" width="61.5" height="55"/></clipPath><clipPath id="clippath-1"><rect class="cls-1" width="61.5" height="55"/></clipPath></defs><g id="Requirements_and_Infomrational"><g id="fast_application"><g class="cls-2"><g class="cls-5"><path class="cls-3" d="m34.24,19.92l-5.3,8.28-12.99-8.32c-.96-.61-2.23-.33-2.85.63-.61.96-.33,2.23.62,2.85l14.73,9.43c.35.22.73.33,1.11.33.68,0,1.35-.34,1.74-.95l6.41-10.02c.61-.96.34-2.24-.62-2.85-.96-.62-2.24-.33-2.85.62"/><path class="cls-4" d="m51.1,33.19c5.75,0,10.41,4.66,10.41,10.41s-4.66,10.41-10.41,10.41-10.41-4.66-10.41-10.41,4.66-10.41,10.41-10.41"/><path class="cls-3" d="m51.32,52.25c.61,0,1.11-.5,1.11-1.11v-.75l.13-.03c.35-.07.69-.18,1.01-.32,1.28-.47,2.16-1.67,2.22-3.03.14-2.68-1.86-3.53-3.62-3.98l-1.55-.35c-1.84-.47-1.81-1.19-1.78-1.57.03-.36.21-.69.5-.9.35-.27.78-.43,1.23-.44.48-.05.97-.03,1.45.07.61.08,1.15.44,1.46.97.22.57.85.86,1.42.65.57-.21.87-.85.66-1.42-.56-1.22-1.68-2.1-3-2.35l-.13-.03v-.75c0-.61-.49-1.11-1.11-1.11s-1.11.49-1.11,1.11v.67l-.14.02c-.76.11-1.48.41-2.1.87-.79.61-1.28,1.53-1.34,2.52-.11,2.03,1.18,3.35,3.83,3.93l1.54.37c1.57.47,1.62.92,1.59,1.61-.02.35-.14.8-.9,1.12-.2.09-.42.16-.64.19-.48.1-.97.12-1.46.06-.92-.12-1.76-.6-2.31-1.35-.17-.24-.44-.39-.73-.43-.05,0-.11-.01-.16-.01-.24,0-.47.08-.66.22-.49.37-.59,1.06-.22,1.55.87,1.16,2.15,1.94,3.58,2.18l.14.02v.69c0,.61.49,1.11,1.11,1.11"/><path class="cls-3" d="m55,27.5c0-.14,0-.28-.01-.43,0-.19,0-.39-.01-.58-.01-.37-.03-.74-.06-1.1,0-.06,0-.11,0-.17h0C53.65,10.11,40.14-1.58,24.36.18,11.74,1.58,1.58,11.74.18,24.36c-1.85,16.56,11.12,30.64,27.32,30.64,3.61,0,7.12-.69,10.39-2.03,1.05-.43,1.54-1.65,1.09-2.69l-.02-.04c-.45-1.03-1.63-1.49-2.68-1.07-3.24,1.32-6.76,1.89-10.37,1.65-11.54-.75-20.92-10.11-21.74-21.64C3.22,15.54,14.05,4.12,27.5,4.12c12.12,0,22.11,9.27,23.26,21.1h0c.04.43.07.86.09,1.29,0,.18.01.37.01.55,0,.36.02.73,0,1.09-.03,1.12.81,2.08,1.94,2.13h.04c1.14.06,2.1-.83,2.14-1.96,0-.26,0-.52,0-.78,0-.02.01-.03.01-.05"/></g></g></g></g></svg>