<?xml version="1.0" encoding="UTF-8"?><svg id="Layer_2" xmlns="http://www.w3.org/2000/svg" xmlns:xlink="http://www.w3.org/1999/xlink" viewBox="0 0 66.65 55"><defs><style>.cls-1{fill:none;}.cls-2{clip-path:url(#clippath);}.cls-3{fill:#000082;}.cls-4{fill:#c9f8ea;}.cls-5{clip-path:url(#clippath-1);}</style><clipPath id="clippath"><rect class="cls-1" width="66.65" height="55"/></clipPath><clipPath id="clippath-1"><rect class="cls-1" width="66.65" height="55"/></clipPath></defs><g id="Layer_2-2"><g id="money_delivered_globally"><g class="cls-2"><g class="cls-5"><path class="cls-4" d="M47.26,1.22c5.75,0,10.41,4.66,10.41,10.41s-4.66,10.41-10.41,10.41-10.41-4.66-10.41-10.41S41.51,1.22,47.26,1.22"/><path class="cls-3" d="M65.94,33.27h0c-1.14-2.05-3.39-3.2-5.73-2.92-.53,.12-1.06,.26-1.6,.4l-.65,.16-.06-.08c-.09-.12-.18-.24-.27-.36-1.49-2.01-4.08-2.8-6.45-1.97-1.9,.73-3.96,1.6-6.5,2.74-.43,.24-.76,.62-.94,1.08-.25,.58-.07,1.26,.43,1.64,.55,.47,1.32,.55,1.96,.23,.78-.32,1.55-.65,2.33-.97,1.09-.45,2.18-.91,3.28-1.36,.35-.16,.73-.26,1.11-.3,.75-.08,1.5,.21,1.97,.8l-12.03,5.11c-.02-.13-.04-.25-.06-.37-.01-2.36-1.44-4.44-3.64-5.3-4.45-2-8.99-4.02-13.48-6-3.78-1.68-8.05-1.96-12.03-.78-2.85,.93-5.42,2.41-7.65,4.41-.83,.65-1.28,1.67-1.2,2.71,.04,3.64,.03,7.34,.03,10.92,0,1.31,0,2.63,0,3.95v1h-.78c-.21,0-.43,0-.64,0-.53,0-1.08-.01-1.61,.02C.61,48.05-.02,48.68,0,49.7c.02,1.02,.67,1.59,1.82,1.59,.9,0,1.8,0,2.7,0,.45,0,.9,0,1.35,0,1.63,0,2.15-.52,2.15-2.13v-14.48c0-.28-.02-.57-.05-.85-.06-.66-.11-1.35,.14-1.8,.63-.79,1.4-1.43,2.32-1.9,3.78-2.77,8.65-3.39,13-1.65,2.07,.77,4.12,1.72,6.1,2.63,.84,.39,1.69,.78,2.53,1.16,1.67,.74,3.64,1.62,5.61,2.53,1.13,.42,1.82,1.6,1.64,2.8-.19,1.35-1.44,2.29-2.81,2.1-.28-.04-.55-.13-.81-.26-2.03-.89-4.06-1.79-6.09-2.69-1.35-.6-2.7-1.2-4.03-1.78-.78-.51-1.83-.29-2.34,.49-.51,.78-.29,1.83,.49,2.34,.15,.1,.33,.18,.49,.22,3.38,1.5,6.76,2.99,10.14,4.49,1.55,.72,3.33,.73,4.89,.03,2.13-.91,4.27-1.81,6.41-2.71,1.38-.58,2.77-1.17,4.15-1.75,3.24-1.37,6.48-2.75,9.73-4.14,1.24-.65,2.77-.17,3.42,1.06,.65,1.23,.17,2.77-1.06,3.42-.07,.04-.14,.07-.22,.11-1.29,.59-2.62,1.15-3.91,1.68-.51,.21-1.02,.42-1.52,.64l-23.8,10.05c-2.53,1.16-5.52,1.08-7.99-.21-3.17-1.58-6.42-3.15-9.56-4.66l-2.42-1.17c-.76-.51-1.79-.32-2.31,.44-.25,.37-.34,.81-.26,1.25,.08,.44,.33,.81,.7,1.06,.14,.09,.29,.17,.44,.21l11.98,5.86c1.78,.91,3.7,1.36,5.64,1.36,1.72,0,3.43-.36,5.05-1.08,9.59-4.02,19.44-8.18,29.26-12.37,.91-.42,1.74-1.05,2.39-1.81,1.51-1.84,1.75-4.38,.61-6.47"/><path class="cls-3" d="M47.48,20.28c.61,0,1.11-.5,1.11-1.11v-.75l.13-.03c.35-.07,.69-.18,1.01-.32,1.28-.47,2.16-1.67,2.22-3.03,.14-2.68-1.86-3.53-3.62-3.98l-1.55-.35c-1.84-.47-1.81-1.19-1.78-1.57,.03-.36,.21-.69,.5-.9,.35-.28,.78-.43,1.23-.44,.48-.05,.97-.03,1.45,.07,.61,.08,1.15,.44,1.46,.98,.22,.57,.85,.86,1.42,.65,.57-.21,.87-.85,.66-1.42-.57-1.22-1.68-2.1-3-2.35l-.13-.03v-.75c0-.61-.49-1.11-1.11-1.11s-1.11,.49-1.11,1.11v.67l-.14,.02c-.76,.11-1.48,.41-2.1,.87-.79,.61-1.28,1.53-1.34,2.52-.11,2.03,1.18,3.35,3.83,3.92l1.54,.37c1.57,.47,1.62,.92,1.59,1.61-.02,.35-.14,.8-.9,1.12-.2,.09-.42,.16-.64,.19-.48,.1-.97,.12-1.46,.06-.92-.11-1.76-.6-2.31-1.34-.17-.24-.44-.39-.73-.43-.05,0-.11-.01-.16-.01-.24,0-.47,.08-.66,.22-.49,.37-.59,1.06-.22,1.55,.87,1.16,2.15,1.94,3.58,2.18l.14,.02v.69c0,.61,.49,1.1,1.11,1.11"/></g></g></g></g></svg>